<?xml version="1.0" encoding="UTF-8" standalone="no"?>
<!DOCTYPE svg PUBLIC "-//W3C//DTD SVG 1.1//EN"
 "http://www.w3.org/Graphics/SVG/1.1/DTD/svg11.dtd">
<!-- Generated by graphviz version 2.40.1 (20161225.0304)
 -->
<!-- Title: dependencies Pages: 1 -->
<svg width="975pt" height="284pt"
 viewBox="0.00 0.00 975.00 284.00" xmlns="http://www.w3.org/2000/svg" xmlns:xlink="http://www.w3.org/1999/xlink">
<g id="graph0" class="graph" transform="scale(1 1) rotate(0) translate(4 280)">
<title>dependencies</title>
<polygon fill="#ffffff" stroke="transparent" points="-4,4 -4,-280 971,-280 971,4 -4,4"/>
<text text-anchor="start" x="462.5091" y="-42.4" font-family="sans-serif" font-weight="bold" font-size="14.00" fill="#000000">Legend</text>
<polygon fill="#ffffb3" stroke="transparent" points="249.5,-10 249.5,-30 269.5,-30 269.5,-10 249.5,-10"/>
<text text-anchor="start" x="273.129" y="-15.4" font-family="sans-serif" font-size="14.00" fill="#000000"> &#160;Declarations</text>
<polygon fill="#8dd3c7" stroke="transparent" points="362.5,-10 362.5,-30 382.5,-30 382.5,-10 362.5,-10"/>
<text text-anchor="start" x="386.2251" y="-15.4" font-family="sans-serif" font-size="14.00" fill="#000000"> &#160;Module</text>
<polygon fill="#80b1d3" stroke="transparent" points="448.5,-10 448.5,-30 468.5,-30 468.5,-10 448.5,-10"/>
<text text-anchor="start" x="472.2812" y="-15.4" font-family="sans-serif" font-size="14.00" fill="#000000"> &#160;Bootstrap</text>
<polygon fill="#fdb462" stroke="transparent" points="545.5,-10 545.5,-30 565.5,-30 565.5,-10 545.5,-10"/>
<text text-anchor="start" x="569.1732" y="-15.4" font-family="sans-serif" font-size="14.00" fill="#000000"> &#160;Providers</text>
<polygon fill="#fb8072" stroke="transparent" points="641.5,-10 641.5,-30 661.5,-30 661.5,-10 641.5,-10"/>
<text text-anchor="start" x="665.2258" y="-15.4" font-family="sans-serif" font-size="14.00" fill="#000000"> &#160;Exports</text>
<g id="clust1" class="cluster">
<title>cluster_AppModule</title>
<polygon fill="none" stroke="#000000" stroke-dasharray="1,5" points="8,-70 8,-268 959,-268 959,-70 8,-70"/>
</g>
<g id="clust2" class="cluster">
<title>cluster_AppModule_declarations</title>
<polygon fill="none" stroke="#000000" points="16,-78 16,-130 951,-130 951,-78 16,-78"/>
</g>
<g id="clust11" class="cluster">
<title>cluster_AppModule_bootstrap</title>
<polygon fill="none" stroke="#000000" points="467,-208 467,-260 591,-260 591,-208 467,-208"/>
</g>
<!-- AppComponent -->
<g id="node1" class="node">
<title>AppComponent</title>
<polygon fill="#ffffb3" stroke="#000000" points="942.9399,-122 837.0601,-122 837.0601,-86 942.9399,-86 942.9399,-122"/>
<text text-anchor="middle" x="890" y="-99.8" font-family="Times,serif" font-size="14.00" fill="#000000">AppComponent</text>
</g>
<!-- AppModule -->
<g id="node7" class="node">
<title>AppModule</title>
<polygon fill="#8dd3c7" stroke="#000000" points="570.6571,-187 567.6571,-191 546.6571,-191 543.6571,-187 487.3429,-187 487.3429,-151 570.6571,-151 570.6571,-187"/>
<text text-anchor="middle" x="529" y="-164.8" font-family="Times,serif" font-size="14.00" fill="#000000">AppModule</text>
</g>
<!-- AppComponent&#45;&gt;AppModule -->
<g id="edge1" class="edge">
<title>AppComponent&#45;&gt;AppModule</title>
<path fill="none" stroke="#000000" d="M890,-122.2843C890,-143.3211 890,-175 890,-175 890,-175 580.764,-175 580.764,-175"/>
<polygon fill="#000000" stroke="#000000" points="580.764,-171.5001 570.764,-175 580.7639,-178.5001 580.764,-171.5001"/>
</g>
<!-- HomeComponent -->
<g id="node2" class="node">
<title>HomeComponent</title>
<polygon fill="#ffffb3" stroke="#000000" points="819.5451,-122 704.4549,-122 704.4549,-86 819.5451,-86 819.5451,-122"/>
<text text-anchor="middle" x="762" y="-99.8" font-family="Times,serif" font-size="14.00" fill="#000000">HomeComponent</text>
</g>
<!-- HomeComponent&#45;&gt;AppModule -->
<g id="edge2" class="edge">
<title>HomeComponent&#45;&gt;AppModule</title>
<path fill="none" stroke="#000000" d="M762,-122.0225C762,-139.3734 762,-163 762,-163 762,-163 580.9248,-163 580.9248,-163"/>
<polygon fill="#000000" stroke="#000000" points="580.9249,-159.5001 570.9248,-163 580.9248,-166.5001 580.9249,-159.5001"/>
</g>
<!-- LeitorDeAtoComponent -->
<g id="node3" class="node">
<title>LeitorDeAtoComponent</title>
<polygon fill="#ffffb3" stroke="#000000" points="686.3599,-122 533.6401,-122 533.6401,-86 686.3599,-86 686.3599,-122"/>
<text text-anchor="middle" x="610" y="-99.8" font-family="Times,serif" font-size="14.00" fill="#000000">LeitorDeAtoComponent</text>
</g>
<!-- LeitorDeAtoComponent&#45;&gt;AppModule -->
<g id="edge3" class="edge">
<title>LeitorDeAtoComponent&#45;&gt;AppModule</title>
<path fill="none" stroke="#000000" d="M552.1992,-122.1061C552.1992,-122.1061 552.1992,-140.991 552.1992,-140.991"/>
<polygon fill="#000000" stroke="#000000" points="548.6992,-140.9909 552.1992,-150.991 555.6992,-140.991 548.6992,-140.9909"/>
</g>
<!-- ListarAtoComponent -->
<g id="node4" class="node">
<title>ListarAtoComponent</title>
<polygon fill="#ffffb3" stroke="#000000" points="515.4832,-122 380.5168,-122 380.5168,-86 515.4832,-86 515.4832,-122"/>
<text text-anchor="middle" x="448" y="-99.8" font-family="Times,serif" font-size="14.00" fill="#000000">ListarAtoComponent</text>
</g>
<!-- ListarAtoComponent&#45;&gt;AppModule -->
<g id="edge4" class="edge">
<title>ListarAtoComponent&#45;&gt;AppModule</title>
<path fill="none" stroke="#000000" d="M501.3317,-122.1061C501.3317,-122.1061 501.3317,-140.991 501.3317,-140.991"/>
<polygon fill="#000000" stroke="#000000" points="497.8318,-140.9909 501.3317,-150.991 504.8318,-140.991 497.8318,-140.9909"/>
</g>
<!-- PaginaNaoEncontradaComponent -->
<g id="node5" class="node">
<title>PaginaNaoEncontradaComponent</title>
<polygon fill="#ffffb3" stroke="#000000" points="362.0042,-122 155.9958,-122 155.9958,-86 362.0042,-86 362.0042,-122"/>
<text text-anchor="middle" x="259" y="-99.8" font-family="Times,serif" font-size="14.00" fill="#000000">PaginaNaoEncontradaComponent</text>
</g>
<!-- PaginaNaoEncontradaComponent&#45;&gt;AppModule -->
<g id="edge5" class="edge">
<title>PaginaNaoEncontradaComponent&#45;&gt;AppModule</title>
<path fill="none" stroke="#000000" d="M259,-122.0225C259,-139.3734 259,-163 259,-163 259,-163 477.1087,-163 477.1087,-163"/>
<polygon fill="#000000" stroke="#000000" points="477.1088,-166.5001 487.1087,-163 477.1087,-159.5001 477.1088,-166.5001"/>
</g>
<!-- SobreComponent -->
<g id="node6" class="node">
<title>SobreComponent</title>
<polygon fill="#ffffb3" stroke="#000000" points="137.9902,-122 24.0098,-122 24.0098,-86 137.9902,-86 137.9902,-122"/>
<text text-anchor="middle" x="81" y="-99.8" font-family="Times,serif" font-size="14.00" fill="#000000">SobreComponent</text>
</g>
<!-- SobreComponent&#45;&gt;AppModule -->
<g id="edge6" class="edge">
<title>SobreComponent&#45;&gt;AppModule</title>
<path fill="none" stroke="#000000" d="M81,-122.2843C81,-143.3211 81,-175 81,-175 81,-175 477.2555,-175 477.2555,-175"/>
<polygon fill="#000000" stroke="#000000" points="477.2556,-178.5001 487.2555,-175 477.2555,-171.5001 477.2556,-178.5001"/>
</g>
<!-- AppComponent  -->
<g id="node8" class="node">
<title>AppComponent </title>
<polygon fill="#80b1d3" stroke="#000000" points="583.439,-252 474.561,-252 474.561,-216 583.439,-216 583.439,-252"/>
<text text-anchor="middle" x="529" y="-229.8" font-family="Times,serif" font-size="14.00" fill="#000000">AppComponent </text>
</g>
<!-- AppModule&#45;&gt;AppComponent  -->
<g id="edge7" class="edge">
<title>AppModule&#45;&gt;AppComponent </title>
<path fill="none" stroke="#000000" stroke-dasharray="1,5" d="M529,-187.1061C529,-187.1061 529,-205.991 529,-205.991"/>
<polygon fill="#000000" stroke="#000000" points="525.5001,-205.9909 529,-215.991 532.5001,-205.991 525.5001,-205.9909"/>
</g>
</g>
</svg>
